STARTFONT 2.1
FONT -FontForge-Permanent Marker-Book-R-Normal--18-180-72-72-P-104-ISO10646-1
SIZE 18 72 72
FONTBOUNDINGBOX 27 25 -5 -6
COMMENT "Generated by fontforge, http://fontforge.sourceforge.net"
COMMENT "Copyright (c) 2010 by Font Diner, Inc. All rights reserved."
STARTPROPERTIES 39
FOUNDRY "FontForge"
FAMILY_NAME "Permanent Marker"
WEIGHT_NAME "Book"
SLANT "R"
SETWIDTH_NAME "Normal"
ADD_STYLE_NAME ""
PIXEL_SIZE 18
POINT_SIZE 180
RESOLUTION_X 72
RESOLUTION_Y 72
SPACING "P"
AVERAGE_WIDTH 104
CHARSET_REGISTRY "ISO10646"
CHARSET_ENCODING "1"
FONTNAME_REGISTRY ""
CHARSET_COLLECTIONS "ISO10646-1"
FONT_NAME "PermanentMarker-Regular"
FACE_NAME "Permanent Marker Regular"
COPYRIGHT "Copyright (c) 2010 by Font Diner, Inc. All rights reserved."
FONT_VERSION "1.001"
FONT_ASCENT 14
FONT_DESCENT 4
UNDERLINE_POSITION -2
UNDERLINE_THICKNESS 1
X_HEIGHT 10
CAP_HEIGHT 12
RAW_ASCENT 799
RAW_DESCENT 200
NORM_SPACE 7
RELATIVE_WEIGHT 40
RELATIVE_SETWIDTH 50
SUPERSCRIPT_X 0
SUPERSCRIPT_Y 8
SUPERSCRIPT_SIZE 11
SUBSCRIPT_X 0
SUBSCRIPT_Y 2
SUBSCRIPT_SIZE 11
AVG_LOWERCASE_WIDTH 101
AVG_UPPERCASE_WIDTH 122
ENDPROPERTIES
CHARS 230
STARTCHAR space
ENCODING 32
SWIDTH 370 0
DWIDTH 7 0
BBX 1 1 0 0
BITMAP
00
ENDCHAR
STARTCHAR exclam
ENCODING 33
SWIDTH 260 0
DWIDTH 5 0
BBX 5 13 0 0
BITMAP
10
38
38
38
30
30
70
70
60
00
40
E0
E0
ENDCHAR
STARTCHAR quotedbl
ENCODING 34
SWIDTH 492 0
DWIDTH 9 0
BBX 9 8 1 5
BITMAP
3300
7B80
7700
7700
6600
6E00
EE00
6600
ENDCHAR
STARTCHAR numbersign
ENCODING 35
SWIDTH 703 0
DWIDTH 13 0
BBX 12 13 1 0
BITMAP
08C0
0CC0
1CC0
1FC0
FFF0
FFC0
3B80
3FC0
FFE0
FF00
6700
E600
6600
ENDCHAR
STARTCHAR dollar
ENCODING 36
SWIDTH 493 0
DWIDTH 9 0
BBX 9 13 1 0
BITMAP
0400
0C00
0F00
7F80
FA80
F000
F800
0C00
0C00
3C00
F800
F000
7000
ENDCHAR
STARTCHAR percent
ENCODING 37
SWIDTH 643 0
DWIDTH 12 0
BBX 11 13 1 0
BITMAP
1020
3060
78C0
D9C0
FB80
F700
0E00
1D00
3380
6780
EDC0
CF80
C700
ENDCHAR
STARTCHAR ampersand
ENCODING 38
SWIDTH 599 0
DWIDTH 11 0
BBX 10 9 0 1
BITMAP
0200
0700
7700
7E00
FFC0
7FC0
0E00
0E00
0C00
ENDCHAR
STARTCHAR quotesingle
ENCODING 39
SWIDTH 265 0
DWIDTH 5 0
BBX 5 8 1 5
BITMAP
30
78
70
70
60
60
E0
60
ENDCHAR
STARTCHAR parenleft
ENCODING 40
SWIDTH 361 0
DWIDTH 7 0
BBX 7 18 1 -3
BITMAP
02
06
1E
3C
38
70
70
E0
E0
E0
C0
C0
C0
C0
E0
E0
60
60
ENDCHAR
STARTCHAR parenright
ENCODING 41
SWIDTH 361 0
DWIDTH 7 0
BBX 8 18 -2 -3
BITMAP
0C
06
0E
06
07
07
07
07
06
0E
0E
1E
1C
3C
78
F0
E0
C0
ENDCHAR
STARTCHAR asterisk
ENCODING 42
SWIDTH 673 0
DWIDTH 12 0
BBX 12 9 1 4
BITMAP
19C0
1F80
1F00
7FE0
FFF0
7F00
1F80
3980
1080
ENDCHAR
STARTCHAR plus
ENCODING 43
SWIDTH 579 0
DWIDTH 10 0
BBX 10 10 0 0
BITMAP
0400
0C00
0E00
0E00
FF80
FFC0
7C00
1C00
1800
1800
ENDCHAR
STARTCHAR comma
ENCODING 44
SWIDTH 204 0
DWIDTH 4 0
BBX 4 6 -2 -3
BITMAP
20
70
70
70
E0
E0
ENDCHAR
STARTCHAR hyphen
ENCODING 45
SWIDTH 609 0
DWIDTH 11 0
BBX 10 3 0 3
BITMAP
FF80
7FC0
6000
ENDCHAR
STARTCHAR period
ENCODING 46
SWIDTH 228 0
DWIDTH 4 0
BBX 4 3 -1 0
BITMAP
60
F0
60
ENDCHAR
STARTCHAR slash
ENCODING 47
SWIDTH 401 0
DWIDTH 7 0
BBX 10 13 -1 0
BITMAP
0080
01C0
01C0
0380
0700
0E00
0C00
1C00
3800
7000
6000
E000
6000
ENDCHAR
STARTCHAR zero
ENCODING 48
SWIDTH 686 0
DWIDTH 12 0
BBX 12 14 0 0
BITMAP
0100
0380
07C0
0F80
1FC0
3EC0
38E0
78E0
7060
E070
E1F0
FFE0
7FC0
7F00
ENDCHAR
STARTCHAR one
ENCODING 49
SWIDTH 322 0
DWIDTH 6 0
BBX 5 13 0 0
BITMAP
20
30
38
38
38
38
38
78
70
70
F0
E0
60
ENDCHAR
STARTCHAR two
ENCODING 50
SWIDTH 650 0
DWIDTH 12 0
BBX 12 13 1 0
BITMAP
7E00
FF00
FF80
63C0
0780
0F80
3E00
3C00
7800
F3E0
FFF0
FFE0
7C00
ENDCHAR
STARTCHAR three
ENCODING 51
SWIDTH 561 0
DWIDTH 10 0
BBX 10 13 0 0
BITMAP
1F80
FFC0
FFC0
FF80
3F00
3E00
3F00
1F80
0380
0780
7F80
FF00
7C00
ENDCHAR
STARTCHAR four
ENCODING 52
SWIDTH 582 0
DWIDTH 10 0
BBX 9 15 1 -1
BITMAP
0200
0600
8700
C700
C600
E780
FF80
FF80
7E00
0C00
1C00
1C00
1C00
0C00
0800
ENDCHAR
STARTCHAR five
ENCODING 53
SWIDTH 580 0
DWIDTH 10 0
BBX 11 13 1 0
BITMAP
1800
3FC0
7FE0
FFE0
FC00
F800
7C00
3E00
0700
0F00
FF00
FE00
7C00
ENDCHAR
STARTCHAR six
ENCODING 54
SWIDTH 500 0
DWIDTH 9 0
BBX 8 13 0 0
BITMAP
0C
1E
1E
38
30
70
76
EF
FF
DF
FF
FE
F8
ENDCHAR
STARTCHAR seven
ENCODING 55
SWIDTH 576 0
DWIDTH 10 0
BBX 11 13 0 0
BITMAP
7C00
FF00
FF80
0780
0380
0380
3FE0
7FE0
7F00
0E00
1C00
1C00
1800
ENDCHAR
STARTCHAR eight
ENCODING 56
SWIDTH 537 0
DWIDTH 10 0
BBX 10 13 1 0
BITMAP
3D80
7D80
FF80
EFC0
E780
7F00
7E00
7C00
7C00
EC00
FE00
7C00
3C00
ENDCHAR
STARTCHAR nine
ENCODING 57
SWIDTH 529 0
DWIDTH 10 0
BBX 9 13 1 0
BITMAP
1E00
3E00
7F00
F300
FF80
FF00
FF00
0600
0600
0E00
0E00
0C00
0C00
ENDCHAR
STARTCHAR colon
ENCODING 58
SWIDTH 241 0
DWIDTH 4 0
BBX 5 8 -1 0
BITMAP
30
38
38
20
00
60
F0
60
ENDCHAR
STARTCHAR semicolon
ENCODING 59
SWIDTH 245 0
DWIDTH 4 0
BBX 5 11 -1 -3
BITMAP
30
38
38
20
00
40
70
70
E0
E0
C0
ENDCHAR
STARTCHAR less
ENCODING 60
SWIDTH 625 0
DWIDTH 11 0
BBX 11 9 0 0
BITMAP
0040
01E0
0FC0
7F00
FC00
FC00
3F00
07C0
0080
ENDCHAR
STARTCHAR equal
ENCODING 61
SWIDTH 586 0
DWIDTH 11 0
BBX 10 6 0 2
BITMAP
7FC0
7FC0
6000
0000
FF80
FF00
ENDCHAR
STARTCHAR greater
ENCODING 62
SWIDTH 634 0
DWIDTH 11 0
BBX 11 9 -1 0
BITMAP
2000
3E00
1F80
07E0
03E0
1FE0
7E00
F000
4000
ENDCHAR
STARTCHAR question
ENCODING 63
SWIDTH 556 0
DWIDTH 10 0
BBX 10 14 1 -1
BITMAP
7F00
FFC0
7FC0
03C0
07C0
0F80
3E00
3800
7000
0000
C000
E000
E000
4000
ENDCHAR
STARTCHAR at
ENCODING 64
SWIDTH 732 0
DWIDTH 13 0
BBX 13 13 0 0
BITMAP
03C0
03E0
0760
1E30
3CF0
73D8
EF98
ED98
DFF0
CFE0
E000
7FC0
3FE0
ENDCHAR
STARTCHAR A
ENCODING 65
SWIDTH 702 0
DWIDTH 13 0
BBX 13 13 0 0
BITMAP
0100
0380
0FC0
1FC0
1FC0
3DC0
39D0
7FF8
7FF0
FFE0
E0E0
E1E0
C0C0
ENDCHAR
STARTCHAR B
ENCODING 66
SWIDTH 686 0
DWIDTH 12 0
BBX 13 13 -1 0
BITMAP
0FC0
7FF0
FE70
78F0
2FE0
0FC0
1FE0
1F70
1C38
38F8
3BF0
3FE0
3F80
ENDCHAR
STARTCHAR C
ENCODING 67
SWIDTH 611 0
DWIDTH 11 0
BBX 11 13 0 0
BITMAP
0180
07E0
0FE0
3FC0
7E00
7800
F000
E000
E000
F000
7FC0
3FC0
0F80
ENDCHAR
STARTCHAR D
ENCODING 68
SWIDTH 588 0
DWIDTH 11 0
BBX 10 13 0 0
BITMAP
6000
7C00
7E00
6F00
6380
70C0
70C0
71C0
67C0
7F80
FF00
FC00
6000
ENDCHAR
STARTCHAR E
ENCODING 69
SWIDTH 626 0
DWIDTH 11 0
BBX 12 13 0 0
BITMAP
01E0
3FF0
7FE0
7E00
3800
3F80
7FC0
7F00
F000
E0C0
FFE0
FFC0
7F80
ENDCHAR
STARTCHAR F
ENCODING 70
SWIDTH 575 0
DWIDTH 10 0
BBX 13 13 0 0
BITMAP
03F0
1FF8
7FE0
7C00
3C00
3800
FF80
FFC0
FF80
7000
E000
E000
6000
ENDCHAR
STARTCHAR G
ENCODING 71
SWIDTH 789 0
DWIDTH 14 0
BBX 15 13 0 0
BITMAP
00C0
03E0
07E0
0FC0
1F00
3C20
7878
F07C
E07E
E3FE
FFFC
7FE0
3F00
ENDCHAR
STARTCHAR H
ENCODING 72
SWIDTH 695 0
DWIDTH 13 0
BBX 12 13 0 0
BITMAP
2060
3060
3870
3870
3870
7870
70F0
7FF0
7FE0
FEE0
F9E0
F1E0
E0C0
ENDCHAR
STARTCHAR I
ENCODING 73
SWIDTH 515 0
DWIDTH 9 0
BBX 13 13 -1 0
BITMAP
1FF0
1FF8
1FE0
0380
0300
0700
0700
0700
0E00
0E00
7F80
FF80
7C00
ENDCHAR
STARTCHAR J
ENCODING 74
SWIDTH 668 0
DWIDTH 12 0
BBX 14 13 0 0
BITMAP
0FF8
7FFC
7FFC
31C0
01C0
01C0
01C0
0380
0380
0780
FF00
FE00
7C00
ENDCHAR
STARTCHAR K
ENCODING 75
SWIDTH 776 0
DWIDTH 14 0
BBX 14 13 0 0
BITMAP
0C00
1E38
1C7C
3DF8
3BF0
3FC0
7F80
7F00
7F80
FBFC
F9FC
F07C
6000
ENDCHAR
STARTCHAR L
ENCODING 76
SWIDTH 632 0
DWIDTH 11 0
BBX 11 13 0 0
BITMAP
1800
1C00
3C00
3800
3800
7800
7000
7000
F000
E780
FFE0
7FE0
7E40
ENDCHAR
STARTCHAR M
ENCODING 77
SWIDTH 973 0
DWIDTH 18 0
BBX 17 13 0 0
BITMAP
040300
0F0380
1F0780
1F1F80
3F3F80
3FFF80
7FFB80
7FF780
73C700
F00700
E00700
E00700
400600
ENDCHAR
STARTCHAR N
ENCODING 78
SWIDTH 684 0
DWIDTH 12 0
BBX 13 13 0 0
BITMAP
0820
0E30
1E78
1E70
3E70
3C70
7CF0
7CE0
FFE0
F7E0
E7C0
E3C0
6100
ENDCHAR
STARTCHAR O
ENCODING 79
SWIDTH 744 0
DWIDTH 13 0
BBX 13 13 0 0
BITMAP
01C0
03E0
07C0
0FE0
1FE0
3C70
7870
7030
E038
E0F8
FFF0
7FE0
3F80
ENDCHAR
STARTCHAR P
ENCODING 80
SWIDTH 639 0
DWIDTH 12 0
BBX 11 13 1 0
BITMAP
0F80
1FC0
3FE0
39E0
71E0
FFE0
FFC0
FF80
F800
E000
E000
E000
E000
ENDCHAR
STARTCHAR Q
ENCODING 81
SWIDTH 744 0
DWIDTH 13 0
BBX 13 14 0 -1
BITMAP
03C0
03E0
07E0
0FF0
1F30
3C38
7A38
F3B8
E1F8
E3F0
FFE0
FFF0
7E70
0030
ENDCHAR
STARTCHAR R
ENCODING 82
SWIDTH 646 0
DWIDTH 12 0
BBX 12 14 0 -1
BITMAP
0700
0780
0FC0
3FC0
39E0
7BE0
7FC0
7F80
7C00
7C00
FF80
EFF0
63F0
0060
ENDCHAR
STARTCHAR S
ENCODING 83
SWIDTH 576 0
DWIDTH 10 0
BBX 12 13 0 0
BITMAP
03E0
1FF0
7FF0
FC00
FE00
7F00
0F00
0180
0380
0780
7F00
7E00
7800
ENDCHAR
STARTCHAR T
ENCODING 84
SWIDTH 607 0
DWIDTH 11 0
BBX 14 13 0 0
BITMAP
03F8
FFFC
FFFC
7F00
0F00
0E00
0E00
1C00
1C00
1800
1800
1800
1C00
ENDCHAR
STARTCHAR U
ENCODING 85
SWIDTH 695 0
DWIDTH 13 0
BBX 12 13 1 0
BITMAP
0020
4060
6070
E070
E070
E0F0
E1E0
E1E0
E7C0
FF80
FF00
7E00
3800
ENDCHAR
STARTCHAR V
ENCODING 86
SWIDTH 583 0
DWIDTH 11 0
BBX 11 13 1 0
BITMAP
C0C0
E0E0
E1E0
E3C0
E780
E700
FF00
7E00
7C00
7C00
7800
3800
3000
ENDCHAR
STARTCHAR W
ENCODING 87
SWIDTH 994 0
DWIDTH 18 0
BBX 19 13 0 0
BITMAP
1000C0
1820C0
3C71E0
3871E0
78F1C0
71F3C0
71E380
73E780
77EF00
FFFF00
7F3E00
7E3E00
381C00
ENDCHAR
STARTCHAR X
ENCODING 88
SWIDTH 623 0
DWIDTH 11 0
BBX 12 14 0 -1
BITMAP
2020
7070
78F0
3FF0
1FC0
1F80
1E00
3F00
7F80
F3C0
E1C0
C1C0
C080
8000
ENDCHAR
STARTCHAR Y
ENCODING 89
SWIDTH 493 0
DWIDTH 9 0
BBX 10 14 1 -1
BITMAP
C180
E3C0
E780
EF00
7F00
7E00
7C00
3800
7800
7000
F000
E000
E000
4000
ENDCHAR
STARTCHAR Z
ENCODING 90
SWIDTH 664 0
DWIDTH 12 0
BBX 12 14 0 -1
BITMAP
1FF0
1FF0
1FF0
01F0
03C0
0780
1F00
3E00
FC00
F0C0
FFE0
FFC0
7F00
3000
ENDCHAR
STARTCHAR bracketleft
ENCODING 91
SWIDTH 387 0
DWIDTH 7 0
BBX 14 19 -1 -3
BITMAP
0FF8
07FC
0780
0E00
0E00
0C00
0C00
1C00
1C00
1800
3800
3800
3800
3000
7000
7000
FF00
7F80
7400
ENDCHAR
STARTCHAR backslash
ENCODING 92
SWIDTH 352 0
DWIDTH 6 0
BBX 4 13 1 0
BITMAP
C0
E0
E0
60
60
60
60
60
70
30
30
30
30
ENDCHAR
STARTCHAR bracketright
ENCODING 93
SWIDTH 403 0
DWIDTH 7 0
BBX 12 19 -5 -3
BITMAP
0FF0
0FF0
0630
0070
0070
0070
0060
00E0
00E0
00C0
00C0
01C0
01C0
0180
0380
0380
FF80
FF00
E400
ENDCHAR
STARTCHAR asciicircum
ENCODING 94
SWIDTH 518 0
DWIDTH 9 0
BBX 8 10 0 3
BITMAP
06
06
0F
1F
1B
3B
73
E3
E3
C1
ENDCHAR
STARTCHAR underscore
ENCODING 95
SWIDTH 708 0
DWIDTH 13 0
BBX 15 3 -2 -1
BITMAP
FFFC
FFFE
2000
ENDCHAR
STARTCHAR grave
ENCODING 96
SWIDTH 754 0
DWIDTH 14 0
BBX 6 5 5 8
BITMAP
60
F0
78
3C
08
ENDCHAR
STARTCHAR a
ENCODING 97
SWIDTH 581 0
DWIDTH 10 0
BBX 11 11 0 0
BITMAP
0400
0700
1F00
3F00
3B00
7380
7FE0
7FC0
ED80
C380
C380
ENDCHAR
STARTCHAR b
ENCODING 98
SWIDTH 573 0
DWIDTH 10 0
BBX 11 11 -1 0
BITMAP
0F80
7FC0
F9C0
7BC0
1F80
1F80
1EC0
38E0
3BE0
3FC0
3F00
ENDCHAR
STARTCHAR c
ENCODING 99
SWIDTH 513 0
DWIDTH 9 0
BBX 9 11 0 0
BITMAP
0300
0F80
1F80
3E00
7800
E000
C000
C000
F800
7F00
3F00
ENDCHAR
STARTCHAR d
ENCODING 100
SWIDTH 497 0
DWIDTH 9 0
BBX 9 11 0 0
BITMAP
4000
7800
7C00
6E00
6300
6180
6380
6F00
FE00
FC00
6000
ENDCHAR
STARTCHAR e
ENCODING 101
SWIDTH 521 0
DWIDTH 9 0
BBX 10 11 0 0
BITMAP
0180
3FC0
7F80
7C00
3E00
7F00
7E00
E000
E700
FF80
7F00
ENDCHAR
STARTCHAR f
ENCODING 102
SWIDTH 455 0
DWIDTH 8 0
BBX 11 11 0 0
BITMAP
03C0
3FE0
7E00
7800
3000
B700
FF00
FE00
E000
E000
4000
ENDCHAR
STARTCHAR g
ENCODING 103
SWIDTH 652 0
DWIDTH 12 0
BBX 12 11 0 0
BITMAP
0100
0780
0F80
1E00
3C00
79C0
F1F0
E0F0
FFF0
FFC0
7E00
ENDCHAR
STARTCHAR h
ENCODING 104
SWIDTH 582 0
DWIDTH 10 0
BBX 10 11 0 0
BITMAP
2080
2080
71C0
71C0
71C0
71C0
7FC0
7F80
FB80
E380
E180
ENDCHAR
STARTCHAR i
ENCODING 105
SWIDTH 320 0
DWIDTH 6 0
BBX 4 11 1 0
BITMAP
20
60
70
70
60
E0
E0
E0
E0
E0
60
ENDCHAR
STARTCHAR j
ENCODING 106
SWIDTH 534 0
DWIDTH 10 0
BBX 12 11 0 0
BITMAP
03C0
7FF0
7FF0
2300
0300
0700
0700
0600
CE00
FE00
F800
ENDCHAR
STARTCHAR k
ENCODING 107
SWIDTH 645 0
DWIDTH 12 0
BBX 12 11 0 0
BITMAP
1800
1C60
39E0
3BC0
3F80
7F00
7E00
7F00
F3F0
E1F0
6000
ENDCHAR
STARTCHAR l
ENCODING 108
SWIDTH 533 0
DWIDTH 10 0
BBX 9 11 0 0
BITMAP
1000
3800
3800
3000
7000
7000
6000
E000
FF00
FF80
7F80
ENDCHAR
STARTCHAR m
ENCODING 109
SWIDTH 814 0
DWIDTH 15 0
BBX 15 11 0 0
BITMAP
0808
1E1C
1E3E
3E7C
3FFC
7FFC
7FDC
E71C
E018
E018
C018
ENDCHAR
STARTCHAR n
ENCODING 110
SWIDTH 564 0
DWIDTH 10 0
BBX 11 11 0 0
BITMAP
1080
18C0
1CE0
3DC0
39C0
79C0
7BC0
FF80
EF80
E700
4200
ENDCHAR
STARTCHAR o
ENCODING 111
SWIDTH 628 0
DWIDTH 11 0
BBX 11 11 0 0
BITMAP
0300
0780
0F80
1F80
39C0
70C0
60C0
E0E0
E7C0
FFC0
7F00
ENDCHAR
STARTCHAR p
ENCODING 112
SWIDTH 524 0
DWIDTH 9 0
BBX 10 11 0 0
BITMAP
0F00
1F80
3FC0
30C0
77C0
7FC0
FF00
7800
6000
E000
6000
ENDCHAR
STARTCHAR q
ENCODING 113
SWIDTH 625 0
DWIDTH 11 0
BBX 11 12 0 -1
BITMAP
0700
0780
0F80
1FC0
3CE0
7060
E7E0
E3E0
CFC0
FFC0
7CC0
00C0
ENDCHAR
STARTCHAR r
ENCODING 114
SWIDTH 541 0
DWIDTH 10 0
BBX 10 12 0 -1
BITMAP
0400
0F00
1F00
7B80
7380
7F80
7F00
F800
FC00
FF80
C7C0
0080
ENDCHAR
STARTCHAR s
ENCODING 115
SWIDTH 463 0
DWIDTH 8 0
BBX 10 11 0 0
BITMAP
0780
1FC0
7FC0
F000
FC00
3E00
0200
0700
1E00
7C00
7800
ENDCHAR
STARTCHAR t
ENCODING 116
SWIDTH 479 0
DWIDTH 9 0
BBX 12 11 0 0
BITMAP
07E0
FFF0
FFE0
0E00
0C00
1C00
1800
3800
3000
3000
1800
ENDCHAR
STARTCHAR u
ENCODING 117
SWIDTH 584 0
DWIDTH 11 0
BBX 10 11 1 0
BITMAP
0080
4080
C0C0
E1C0
E1C0
C380
C780
EF00
FE00
7C00
7800
ENDCHAR
STARTCHAR v
ENCODING 118
SWIDTH 485 0
DWIDTH 9 0
BBX 9 11 1 0
BITMAP
4180
C380
E380
E700
EE00
EC00
7C00
7800
7800
7000
3000
ENDCHAR
STARTCHAR w
ENCODING 119
SWIDTH 825 0
DWIDTH 15 0
BBX 16 11 0 0
BITMAP
1002
3086
38C7
71CE
73CE
73CE
67DC
EFFC
FEF8
7CF0
3870
ENDCHAR
STARTCHAR x
ENCODING 120
SWIDTH 506 0
DWIDTH 9 0
BBX 10 12 0 -1
BITMAP
4000
71C0
7BC0
3F80
1F00
1C00
3E00
7E00
E700
C300
C300
8000
ENDCHAR
STARTCHAR y
ENCODING 121
SWIDTH 400 0
DWIDTH 7 0
BBX 8 12 1 -1
BITMAP
82
C7
EF
FE
FC
78
38
70
E0
E0
C0
40
ENDCHAR
STARTCHAR z
ENCODING 122
SWIDTH 547 0
DWIDTH 10 0
BBX 10 12 0 -1
BITMAP
1F80
3FC0
1FC0
03C0
0F00
1E00
7C00
F000
E780
FF80
FE00
3000
ENDCHAR
STARTCHAR braceleft
ENCODING 123
SWIDTH 448 0
DWIDTH 8 0
BBX 14 19 0 -3
BITMAP
07FC
07FC
0780
0700
0600
0E00
1E00
7E00
F800
7800
3C00
1C00
1800
3800
3800
3000
7F80
7F80
3200
ENDCHAR
STARTCHAR bar
ENCODING 124
SWIDTH 332 0
DWIDTH 6 0
BBX 6 13 0 0
BITMAP
08
0C
1C
18
18
38
30
30
70
60
60
E0
C0
ENDCHAR
STARTCHAR braceright
ENCODING 125
SWIDTH 481 0
DWIDTH 9 0
BBX 13 19 -5 -3
BITMAP
0FF0
0FF0
0E70
0070
0070
0060
00E0
00E0
00F0
0078
00F8
01F0
01C0
0380
0380
0380
FF00
FF00
E400
ENDCHAR
STARTCHAR asciitilde
ENCODING 126
SWIDTH 581 0
DWIDTH 10 0
BBX 10 3 0 4
BITMAP
3DC0
7F80
EF00
ENDCHAR
STARTCHAR uni00A0
ENCODING 160
SWIDTH 370 0
DWIDTH 7 0
BBX 1 1 0 0
BITMAP
00
ENDCHAR
STARTCHAR exclamdown
ENCODING 161
SWIDTH 260 0
DWIDTH 5 0
BBX 5 13 0 0
BITMAP
30
78
30
00
60
60
60
60
E0
E0
E0
C0
C0
ENDCHAR
STARTCHAR cent
ENCODING 162
SWIDTH 488 0
DWIDTH 9 0
BBX 8 13 0 0
BITMAP
04
06
0F
1F
3E
78
E0
C0
E0
7F
3F
30
30
ENDCHAR
STARTCHAR sterling
ENCODING 163
SWIDTH 586 0
DWIDTH 11 0
BBX 10 11 0 1
BITMAP
0300
0FC0
1FC0
1C00
7F00
FF80
7C00
3000
FF80
FF80
7C00
ENDCHAR
STARTCHAR currency
ENCODING 164
SWIDTH 509 0
DWIDTH 9 0
BBX 9 10 0 0
BITMAP
6500
7F80
3F80
7E00
7600
6F00
7E00
FE00
C600
4000
ENDCHAR
STARTCHAR yen
ENCODING 165
SWIDTH 563 0
DWIDTH 10 0
BBX 10 11 0 0
BITMAP
31C0
39C0
3B80
1F00
1F00
FF80
FFC0
5C00
3800
3800
3000
ENDCHAR
STARTCHAR brokenbar
ENCODING 166
SWIDTH 301 0
DWIDTH 5 0
BBX 6 13 0 0
BITMAP
08
1C
1C
18
38
38
00
00
60
60
E0
C0
C0
ENDCHAR
STARTCHAR section
ENCODING 167
SWIDTH 630 0
DWIDTH 11 0
BBX 11 16 0 -2
BITMAP
0FC0
3FE0
3FC0
7800
3F00
3F80
7FC0
70E0
77C0
3FC0
1F80
07C0
03C0
7FC0
FF80
3800
ENDCHAR
STARTCHAR dieresis
ENCODING 168
SWIDTH 754 0
DWIDTH 14 0
BBX 8 3 4 10
BITMAP
E7
E7
C2
ENDCHAR
STARTCHAR copyright
ENCODING 169
SWIDTH 614 0
DWIDTH 11 0
BBX 11 11 0 2
BITMAP
0F00
1E80
3140
6760
6E60
5860
D060
DE60
66C0
2380
1E00
ENDCHAR
STARTCHAR ordfeminine
ENCODING 170
SWIDTH 454 0
DWIDTH 8 0
BBX 8 8 0 4
BITMAP
08
1C
3C
3E
7F
7F
FE
C6
ENDCHAR
STARTCHAR guillemotleft
ENCODING 171
SWIDTH 566 0
DWIDTH 10 0
BBX 10 8 0 0
BITMAP
0880
19C0
3B80
FF00
CE00
E700
7300
3180
ENDCHAR
STARTCHAR logicalnot
ENCODING 172
SWIDTH 698 0
DWIDTH 13 0
BBX 11 6 0 0
BITMAP
FFC0
FFE0
6060
00E0
00C0
00C0
ENDCHAR
STARTCHAR sfthyphen
ENCODING 173
SWIDTH 608 0
DWIDTH 11 0
BBX 10 3 0 3
BITMAP
FF80
7FC0
6000
ENDCHAR
STARTCHAR registered
ENCODING 174
SWIDTH 624 0
DWIDTH 11 0
BBX 10 11 1 2
BITMAP
0E00
3D80
6680
EEC0
DB40
DE40
98C0
BEC0
E780
6700
3E00
ENDCHAR
STARTCHAR macron
ENCODING 175
SWIDTH 754 0
DWIDTH 14 0
BBX 6 2 5 11
BITMAP
FC
FC
ENDCHAR
STARTCHAR degree
ENCODING 176
SWIDTH 284 0
DWIDTH 5 0
BBX 5 6 2 9
BITMAP
10
70
F0
D8
F8
F0
ENDCHAR
STARTCHAR plusminus
ENCODING 177
SWIDTH 559 0
DWIDTH 10 0
BBX 11 12 -1 0
BITMAP
0300
0700
0700
3FC0
3FE0
3E00
0E00
0E00
0400
0200
FFC0
7F80
ENDCHAR
STARTCHAR twosuperior
ENCODING 178
SWIDTH 386 0
DWIDTH 7 0
BBX 7 7 1 6
BITMAP
78
FC
5C
78
FC
FE
70
ENDCHAR
STARTCHAR threesuperior
ENCODING 179
SWIDTH 366 0
DWIDTH 7 0
BBX 6 7 1 6
BITMAP
78
FC
78
38
1C
7C
30
ENDCHAR
STARTCHAR acute
ENCODING 180
SWIDTH 754 0
DWIDTH 14 0
BBX 6 5 5 8
BITMAP
18
3C
78
E0
C0
ENDCHAR
STARTCHAR mu
ENCODING 181
SWIDTH 569 0
DWIDTH 10 0
BBX 10 12 0 -2
BITMAP
0080
20C0
60C0
70C0
61C0
6380
6780
FF00
FE00
F800
C000
C000
ENDCHAR
STARTCHAR paragraph
ENCODING 182
SWIDTH 729 0
DWIDTH 13 0
BBX 13 14 1 0
BITMAP
0020
0FF0
3FF8
FFF0
F760
E760
76E0
7FE0
1FE0
0FE0
0FC0
0DC0
0DC0
1CC0
ENDCHAR
STARTCHAR periodcentered
ENCODING 183
SWIDTH 226 0
DWIDTH 4 0
BBX 3 3 1 5
BITMAP
C0
E0
C0
ENDCHAR
STARTCHAR cedilla
ENCODING 184
SWIDTH 754 0
DWIDTH 14 0
BBX 6 6 5 -5
BITMAP
30
60
78
3C
1C
F8
ENDCHAR
STARTCHAR onesuperior
ENCODING 185
SWIDTH 206 0
DWIDTH 4 0
BBX 3 7 1 6
BITMAP
40
60
60
60
E0
C0
C0
ENDCHAR
STARTCHAR ordmasculine
ENCODING 186
SWIDTH 445 0
DWIDTH 8 0
BBX 8 8 0 4
BITMAP
04
1E
3E
7E
77
EF
FF
7E
ENDCHAR
STARTCHAR guillemotright
ENCODING 187
SWIDTH 595 0
DWIDTH 11 0
BBX 10 8 0 0
BITMAP
8400
6700
7380
3980
39C0
7780
EE00
8C00
ENDCHAR
STARTCHAR onequarter
ENCODING 188
SWIDTH 705 0
DWIDTH 13 0
BBX 11 13 1 0
BITMAP
4180
6180
6380
6700
EE00
DC00
D8C0
3EC0
76E0
E7E0
C380
C180
C180
ENDCHAR
STARTCHAR onehalf
ENCODING 189
SWIDTH 750 0
DWIDTH 14 0
BBX 12 13 1 0
BITMAP
4180
6180
6380
6700
EE00
DC00
D800
3BC0
73E0
E1C0
C3A0
C7F0
C3C0
ENDCHAR
STARTCHAR threequarters
ENCODING 190
SWIDTH 818 0
DWIDTH 15 0
BBX 13 13 1 0
BITMAP
7C30
FC70
78F0
78E0
79C0
FB80
0630
0FB0
19B8
31F8
70E0
60C0
60E0
ENDCHAR
STARTCHAR questiondown
ENCODING 191
SWIDTH 556 0
DWIDTH 10 0
BBX 10 14 -1 -1
BITMAP
00C0
01C0
01C0
0000
0100
0380
0F00
3E00
7C00
F000
FF80
FFC0
7F80
0700
ENDCHAR
STARTCHAR Agrave
ENCODING 192
SWIDTH 702 0
DWIDTH 13 0
BBX 13 19 0 0
BITMAP
0300
0780
03C0
01E0
0040
0000
0100
0380
0FC0
1FC0
1FC0
3DC0
39D0
7FF8
7FF0
FFE0
E0E0
E1E0
C0C0
ENDCHAR
STARTCHAR Aacute
ENCODING 193
SWIDTH 702 0
DWIDTH 13 0
BBX 13 19 0 0
BITMAP
00C0
01E0
03C0
0780
0200
0000
0100
0380
0FC0
1FC0
1FC0
3DC0
39D0
7FF8
7FF0
FFE0
E0E0
E1E0
C0C0
ENDCHAR
STARTCHAR Acircumflex
ENCODING 194
SWIDTH 702 0
DWIDTH 13 0
BBX 13 18 0 0
BITMAP
0180
03C0
07E0
0E70
0420
0100
0380
0FC0
1FC0
1FC0
3DC0
39D0
7FF8
7FF0
FFE0
E0E0
E1E0
C0C0
ENDCHAR
STARTCHAR Atilde
ENCODING 195
SWIDTH 702 0
DWIDTH 13 0
BBX 13 17 0 0
BITMAP
07D8
07F0
0EF0
0000
0100
0380
0FC0
1FC0
1FC0
3DC0
39D0
7FF8
7FF0
FFE0
E0E0
E1E0
C0C0
ENDCHAR
STARTCHAR Adieresis
ENCODING 196
SWIDTH 702 0
DWIDTH 13 0
BBX 13 17 0 0
BITMAP
0670
0E70
0420
0000
0100
0380
0FC0
1FC0
1FC0
3DC0
39D0
7FF8
7FF0
FFE0
E0E0
E1E0
C0C0
ENDCHAR
STARTCHAR Aring
ENCODING 197
SWIDTH 702 0
DWIDTH 13 0
BBX 13 17 0 0
BITMAP
00C0
01C0
0360
03E0
03C0
0380
0FC0
1FC0
1FC0
3DC0
39D0
7FF8
7FF0
FFE0
E0E0
E1E0
C0C0
ENDCHAR
STARTCHAR AE
ENCODING 198
SWIDTH 1153 0
DWIDTH 21 0
BBX 22 13 -1 0
BITMAP
00C078
01E7FC
07EFFC
0FEFC0
0FEE00
1EEFE0
1CEFF0
3FFFE0
7FFC00
77FC10
E07FF8
E1FFF8
C0CFE0
ENDCHAR
STARTCHAR Ccedilla
ENCODING 199
SWIDTH 611 0
DWIDTH 11 0
BBX 11 19 0 -6
BITMAP
0180
07E0
0FE0
3FC0
7E00
7800
F000
E000
E000
F000
7FC0
3FC0
0F80
1800
3C00
1E00
0700
7E00
3800
ENDCHAR
STARTCHAR Egrave
ENCODING 200
SWIDTH 626 0
DWIDTH 11 0
BBX 12 19 0 0
BITMAP
0600
0F00
0780
03C0
0080
0000
01E0
3FF0
7FE0
7E00
3800
3F80
7FC0
7F00
F000
E0C0
FFE0
FFC0
7F80
ENDCHAR
STARTCHAR Eacute
ENCODING 201
SWIDTH 626 0
DWIDTH 11 0
BBX 12 19 0 0
BITMAP
00C0
01E0
03C0
0700
0600
0000
01E0
3FF0
7FE0
7E00
3800
3F80
7FC0
7F00
F000
E0C0
FFE0
FFC0
7F80
ENDCHAR
STARTCHAR Ecircumflex
ENCODING 202
SWIDTH 626 0
DWIDTH 11 0
BBX 12 19 0 0
BITMAP
0300
0780
0EE0
0CE0
0840
0000
01E0
3FF0
7FE0
7E00
3800
3F80
7FC0
7F00
F000
E0C0
FFE0
FFC0
7F80
ENDCHAR
STARTCHAR Edieresis
ENCODING 203
SWIDTH 626 0
DWIDTH 11 0
BBX 12 17 0 0
BITMAP
0C60
0EE0
0C40
0000
01E0
3FF0
7FE0
7E00
3800
3F80
7FC0
7F00
F000
E0C0
FFE0
FFC0
7F80
ENDCHAR
STARTCHAR Igrave
ENCODING 204
SWIDTH 515 0
DWIDTH 9 0
BBX 13 19 -1 0
BITMAP
0600
0700
0380
01C0
00C0
0000
1FF0
1FF8
1FE0
0380
0300
0700
0700
0700
0E00
0E00
7F80
FF80
7C00
ENDCHAR
STARTCHAR Iacute
ENCODING 205
SWIDTH 515 0
DWIDTH 9 0
BBX 13 19 -1 0
BITMAP
0030
0070
00E0
01C0
0180
0000
1FF0
1FF8
1FE0
0380
0300
0700
0700
0700
0E00
0E00
7F80
FF80
7C00
ENDCHAR
STARTCHAR Icircumflex
ENCODING 206
SWIDTH 515 0
DWIDTH 9 0
BBX 13 19 -1 0
BITMAP
00C0
03E0
0770
0630
0410
0000
1FF0
1FF8
1FE0
0380
0300
0700
0700
0700
0E00
0E00
7F80
FF80
7C00
ENDCHAR
STARTCHAR Idieresis
ENCODING 207
SWIDTH 515 0
DWIDTH 9 0
BBX 13 17 -1 0
BITMAP
0738
0738
0610
0000
1FF0
1FF8
1FE0
0380
0300
0700
0700
0700
0E00
0E00
7F80
FF80
7C00
ENDCHAR
STARTCHAR Eth
ENCODING 208
SWIDTH 656 0
DWIDTH 12 0
BBX 12 13 0 0
BITMAP
1000
3E00
3F00
37C0
18E0
FC60
FE60
F8F0
3BE0
3FC0
7F80
3E00
3800
ENDCHAR
STARTCHAR Ntilde
ENCODING 209
SWIDTH 684 0
DWIDTH 12 0
BBX 14 17 0 0
BITMAP
03DC
07F8
0670
0000
0820
0E30
1E78
1E70
3E70
3C70
7CF0
7CE0
FFE0
F7E0
E7C0
E3C0
6100
ENDCHAR
STARTCHAR Ograve
ENCODING 210
SWIDTH 744 0
DWIDTH 13 0
BBX 13 19 0 0
BITMAP
0180
01C0
00E0
0070
0030
0000
01C0
03E0
07C0
0FE0
1FE0
3C70
7870
7030
E038
E0F8
FFF0
7FE0
3F80
ENDCHAR
STARTCHAR Oacute
ENCODING 211
SWIDTH 744 0
DWIDTH 13 0
BBX 13 19 0 0
BITMAP
00C0
01E0
03C0
0780
0200
0000
01C0
03E0
07C0
0FE0
1FE0
3C70
7870
7030
E038
E0F8
FFF0
7FE0
3F80
ENDCHAR
STARTCHAR Ocircumflex
ENCODING 212
SWIDTH 744 0
DWIDTH 13 0
BBX 13 19 0 0
BITMAP
00C0
01E0
03F0
0730
0210
0000
01C0
03E0
07C0
0FE0
1FE0
3C70
7870
7030
E038
E0F8
FFF0
7FE0
3F80
ENDCHAR
STARTCHAR Otilde
ENCODING 213
SWIDTH 744 0
DWIDTH 13 0
BBX 14 17 0 0
BITMAP
03DC
07F8
0670
0000
01C0
03E0
07C0
0FE0
1FE0
3C70
7870
7030
E038
E0F8
FFF0
7FE0
3F80
ENDCHAR
STARTCHAR Odieresis
ENCODING 214
SWIDTH 744 0
DWIDTH 13 0
BBX 13 17 0 0
BITMAP
0630
0738
0610
0000
01C0
03E0
07C0
0FE0
1FE0
3C70
7870
7030
E038
E0F8
FFF0
7FE0
3F80
ENDCHAR
STARTCHAR multiply
ENCODING 215
SWIDTH 490 0
DWIDTH 9 0
BBX 9 9 0 0
BITMAP
6100
7780
3E00
1C00
3C00
7C00
E600
C600
C200
ENDCHAR
STARTCHAR Oslash
ENCODING 216
SWIDTH 744 0
DWIDTH 13 0
BBX 13 15 0 -2
BITMAP
01D8
03F8
07F8
0FF0
1FE0
3DF0
7BF0
77B0
EF38
EEF8
FFF0
7FE0
3F80
3800
3000
ENDCHAR
STARTCHAR Ugrave
ENCODING 217
SWIDTH 695 0
DWIDTH 13 0
BBX 12 18 1 0
BITMAP
1800
1C00
0E00
0700
0300
0020
4060
6070
E070
E070
E0F0
E1E0
E1E0
E7C0
FF80
FF00
7E00
3800
ENDCHAR
STARTCHAR Uacute
ENCODING 218
SWIDTH 695 0
DWIDTH 13 0
BBX 12 18 1 0
BITMAP
00C0
01C0
0380
0700
0600
0020
4060
6070
E070
E070
E0F0
E1E0
E1E0
E7C0
FF80
FF00
7E00
3800
ENDCHAR
STARTCHAR Ucircumflex
ENCODING 219
SWIDTH 695 0
DWIDTH 13 0
BBX 12 19 1 0
BITMAP
0300
0F80
1DC0
18C0
1040
0000
0020
4060
6070
E070
E070
E0F0
E1E0
E1E0
E7C0
FF80
FF00
7E00
3800
ENDCHAR
STARTCHAR Udieresis
ENCODING 220
SWIDTH 695 0
DWIDTH 13 0
BBX 12 17 1 0
BITMAP
18C0
1CE0
1840
0000
0020
4060
6070
E070
E070
E0F0
E1E0
E1E0
E7C0
FF80
FF00
7E00
3800
ENDCHAR
STARTCHAR Yacute
ENCODING 221
SWIDTH 493 0
DWIDTH 9 0
BBX 10 20 1 -1
BITMAP
0180
0380
0700
0E00
0C00
0000
C180
E3C0
E780
EF00
7F00
7E00
7C00
3800
7800
7000
F000
E000
E000
4000
ENDCHAR
STARTCHAR Thorn
ENCODING 222
SWIDTH 680 0
DWIDTH 12 0
BBX 12 13 0 0
BITMAP
1000
3000
3F00
3FE0
7FF0
7070
70F0
73F0
7FC0
FF00
7800
7000
7000
ENDCHAR
STARTCHAR germandbls
ENCODING 223
SWIDTH 931 0
DWIDTH 17 0
BBX 19 11 0 0
BITMAP
0783C0
1FDFC0
7FFFE0
F07800
FC7E00
3E3E00
020300
070300
1E0F00
7C7E00
787800
ENDCHAR
STARTCHAR agrave
ENCODING 224
SWIDTH 581 0
DWIDTH 10 0
BBX 11 16 0 0
BITMAP
0E00
0F00
0780
0380
0180
0400
0700
1F00
3F00
3B00
7380
7FE0
7FC0
ED80
C380
C380
ENDCHAR
STARTCHAR aacute
ENCODING 225
SWIDTH 581 0
DWIDTH 10 0
BBX 11 17 0 0
BITMAP
0180
0380
0700
0E00
0C00
0000
0400
0700
1F00
3F00
3B00
7380
7FE0
7FC0
ED80
C380
C380
ENDCHAR
STARTCHAR acircumflex
ENCODING 226
SWIDTH 581 0
DWIDTH 10 0
BBX 11 16 0 0
BITMAP
0600
0F80
1DC0
18C0
1080
0400
0700
1F00
3F00
3B00
7380
7FE0
7FC0
ED80
C380
C380
ENDCHAR
STARTCHAR atilde
ENCODING 227
SWIDTH 581 0
DWIDTH 10 0
BBX 11 15 0 0
BITMAP
0F60
1FE0
19C0
0000
0400
0700
1F00
3F00
3B00
7380
7FE0
7FC0
ED80
C380
C380
ENDCHAR
STARTCHAR adieresis
ENCODING 228
SWIDTH 581 0
DWIDTH 10 0
BBX 11 15 0 0
BITMAP
0CE0
1CE0
1840
0000
0400
0700
1F00
3F00
3B00
7380
7FE0
7FC0
ED80
C380
C380
ENDCHAR
STARTCHAR aring
ENCODING 229
SWIDTH 581 0
DWIDTH 10 0
BBX 11 15 0 0
BITMAP
0100
0380
0780
0DC0
0F80
0700
1F00
3F00
3B00
7380
7FE0
7FC0
ED80
C380
C380
ENDCHAR
STARTCHAR ae
ENCODING 230
SWIDTH 948 0
DWIDTH 17 0
BBX 19 11 -1 0
BITMAP
0100C0
039FE0
0FBFC0
1FBC00
1DBF00
39BF80
3FFF00
7FF000
EFE380
E3FFC0
C3FF80
ENDCHAR
STARTCHAR ccedilla
ENCODING 231
SWIDTH 513 0
DWIDTH 9 0
BBX 9 16 0 -5
BITMAP
0300
0F80
1F80
3E00
7800
E000
C000
C000
F800
7F00
3F00
3800
3C00
0E00
1E00
7C00
ENDCHAR
STARTCHAR egrave
ENCODING 232
SWIDTH 521 0
DWIDTH 9 0
BBX 10 16 0 0
BITMAP
1800
3C00
1E00
0E00
0200
0180
3FC0
7F80
7C00
3E00
7F00
7E00
E000
E700
FF80
7F00
ENDCHAR
STARTCHAR eacute
ENCODING 233
SWIDTH 521 0
DWIDTH 9 0
BBX 10 16 0 0
BITMAP
0180
0780
0700
0E00
0C00
0180
3FC0
7F80
7C00
3E00
7F00
7E00
E000
E700
FF80
7F00
ENDCHAR
STARTCHAR ecircumflex
ENCODING 234
SWIDTH 521 0
DWIDTH 9 0
BBX 10 16 0 0
BITMAP
0300
0F80
1DC0
1CC0
0840
0180
3FC0
7F80
7C00
3E00
7F00
7E00
E000
E700
FF80
7F00
ENDCHAR
STARTCHAR edieresis
ENCODING 235
SWIDTH 521 0
DWIDTH 9 0
BBX 11 15 0 0
BITMAP
0CE0
1CE0
1840
0000
0180
3FC0
7F80
7C00
3E00
7F00
7E00
E000
E700
FF80
7F00
ENDCHAR
STARTCHAR igrave
ENCODING 236
SWIDTH 320 0
DWIDTH 6 0
BBX 6 17 1 0
BITMAP
60
F0
78
1C
0C
00
20
60
70
70
60
E0
E0
E0
E0
E0
60
ENDCHAR
STARTCHAR iacute
ENCODING 237
SWIDTH 320 0
DWIDTH 6 0
BBX 8 17 1 0
BITMAP
03
07
0F
1C
18
00
20
60
70
70
60
E0
E0
E0
E0
E0
60
ENDCHAR
STARTCHAR icircumflex
ENCODING 238
SWIDTH 320 0
DWIDTH 6 0
BBX 7 16 1 0
BITMAP
10
7C
EE
C6
82
20
60
70
70
60
E0
E0
E0
E0
E0
60
ENDCHAR
STARTCHAR idieresis
ENCODING 239
SWIDTH 320 0
DWIDTH 6 0
BBX 7 15 1 0
BITMAP
CE
EE
C4
00
20
60
70
70
60
E0
E0
E0
E0
E0
60
ENDCHAR
STARTCHAR eth
ENCODING 240
SWIDTH 541 0
DWIDTH 10 0
BBX 9 11 0 0
BITMAP
2000
3C00
3E00
3700
7980
F880
F180
7780
7F00
7C00
7000
ENDCHAR
STARTCHAR ntilde
ENCODING 241
SWIDTH 564 0
DWIDTH 10 0
BBX 13 15 0 0
BITMAP
07B8
0FF0
0CE0
0000
1080
18C0
1CE0
3DC0
39C0
79C0
7BC0
FF80
EF80
E700
4200
ENDCHAR
STARTCHAR ograve
ENCODING 242
SWIDTH 628 0
DWIDTH 11 0
BBX 11 16 0 0
BITMAP
0600
0700
0380
01C0
00C0
0300
0780
0F80
1F80
39C0
70C0
60C0
E0E0
E7C0
FFC0
7F00
ENDCHAR
STARTCHAR oacute
ENCODING 243
SWIDTH 628 0
DWIDTH 11 0
BBX 11 17 0 0
BITMAP
0180
03C0
0780
0F00
0400
0000
0300
0780
0F80
1F80
39C0
70C0
60C0
E0E0
E7C0
FFC0
7F00
ENDCHAR
STARTCHAR ocircumflex
ENCODING 244
SWIDTH 628 0
DWIDTH 11 0
BBX 11 17 0 0
BITMAP
0180
07C0
0EE0
0C60
0820
0000
0300
0780
0F80
1F80
39C0
70C0
60C0
E0E0
E7C0
FFC0
7F00
ENDCHAR
STARTCHAR otilde
ENCODING 245
SWIDTH 628 0
DWIDTH 11 0
BBX 13 15 0 0
BITMAP
07B8
0FF0
0CE0
0000
0300
0780
0F80
1F80
39C0
70C0
60C0
E0E0
E7C0
FFC0
7F00
ENDCHAR
STARTCHAR odieresis
ENCODING 246
SWIDTH 628 0
DWIDTH 11 0
BBX 12 15 0 0
BITMAP
0E70
0E70
0C20
0000
0300
0780
0F80
1F80
39C0
70C0
60C0
E0E0
E7C0
FFC0
7F00
ENDCHAR
STARTCHAR divide
ENCODING 247
SWIDTH 559 0
DWIDTH 10 0
BBX 9 10 0 0
BITMAP
0E00
0E00
0E00
0000
FF80
FF80
4000
1800
3C00
1800
ENDCHAR
STARTCHAR oslash
ENCODING 248
SWIDTH 632 0
DWIDTH 11 0
BBX 11 13 0 -2
BITMAP
0360
07E0
0FE0
1FC0
3BC0
77C0
66C0
EEE0
FFE0
FFC0
7F00
7000
3000
ENDCHAR
STARTCHAR ugrave
ENCODING 249
SWIDTH 584 0
DWIDTH 11 0
BBX 10 16 1 0
BITMAP
1800
3C00
1E00
0F00
0200
0080
4080
C0C0
E1C0
E1C0
C380
C780
EF00
FE00
7C00
7800
ENDCHAR
STARTCHAR uacute
ENCODING 250
SWIDTH 584 0
DWIDTH 11 0
BBX 10 16 1 0
BITMAP
0180
0380
0700
0E00
0C00
0080
4080
C0C0
E1C0
E1C0
C380
C780
EF00
FE00
7C00
7800
ENDCHAR
STARTCHAR ucircumflex
ENCODING 251
SWIDTH 584 0
DWIDTH 11 0
BBX 10 17 1 0
BITMAP
0600
0F00
1F80
3980
1080
0000
0080
4080
C0C0
E1C0
E1C0
C380
C780
EF00
FE00
7C00
7800
ENDCHAR
STARTCHAR udieresis
ENCODING 252
SWIDTH 584 0
DWIDTH 11 0
BBX 10 15 1 0
BITMAP
19C0
39C0
3080
0000
0080
4080
C0C0
E1C0
E1C0
C380
C780
EF00
FE00
7C00
7800
ENDCHAR
STARTCHAR yacute
ENCODING 253
SWIDTH 400 0
DWIDTH 7 0
BBX 9 18 1 -1
BITMAP
0300
0780
0F00
0E00
0800
0000
8200
C700
EF00
FE00
FC00
7800
3800
7000
E000
E000
C000
4000
ENDCHAR
STARTCHAR thorn
ENCODING 254
SWIDTH 579 0
DWIDTH 10 0
BBX 11 11 0 0
BITMAP
3000
3000
7F00
7FC0
71C0
73E0
67C0
7F00
F800
6000
6000
ENDCHAR
STARTCHAR ydieresis
ENCODING 255
SWIDTH 400 0
DWIDTH 7 0
BBX 9 17 1 -1
BITMAP
3380
7B80
3100
0000
0000
8200
C700
EF00
FE00
FC00
7800
3800
7000
E000
E000
C000
4000
ENDCHAR
STARTCHAR dotlessi
ENCODING 305
SWIDTH 320 0
DWIDTH 6 0
BBX 4 11 1 0
BITMAP
20
60
70
70
60
E0
E0
E0
E0
E0
60
ENDCHAR
STARTCHAR Lslash
ENCODING 321
SWIDTH 632 0
DWIDTH 11 0
BBX 13 13 -2 0
BITMAP
0600
0700
0F00
0E00
0F80
3F80
FE00
7C00
3C00
39E0
3FF8
1FF8
1F90
ENDCHAR
STARTCHAR lslash
ENCODING 322
SWIDTH 533 0
DWIDTH 10 0
BBX 11 11 -2 0
BITMAP
0400
0E00
0E00
0C00
1F00
7F00
F800
7800
3FC0
3FE0
1FE0
ENDCHAR
STARTCHAR OE
ENCODING 338
SWIDTH 1212 0
DWIDTH 22 0
BBX 22 13 0 0
BITMAP
01C078
03E7FC
07CFFC
0FEFC0
1FEE00
3C7FE0
787FF0
703FE0
E03C00
E0FC10
FFFFF8
7FFFF8
3F8FE0
ENDCHAR
STARTCHAR oe
ENCODING 339
SWIDTH 1010 0
DWIDTH 18 0
BBX 19 11 0 0
BITMAP
0300C0
079FE0
0FBFC0
1FBC00
39DF00
70FF80
60FF00
E0F000
E7E380
FFFFC0
7F3F80
ENDCHAR
STARTCHAR Scaron
ENCODING 352
SWIDTH 576 0
DWIDTH 10 0
BBX 12 19 0 0
BITMAP
0420
0E60
0EE0
03C0
0100
0000
03E0
1FF0
7FF0
FC00
FE00
7F00
0F00
0180
0380
0780
7F00
7E00
7800
ENDCHAR
STARTCHAR scaron
ENCODING 353
SWIDTH 463 0
DWIDTH 8 0
BBX 10 17 0 0
BITMAP
1080
3980
1F80
0F00
0600
0000
0780
1FC0
7FC0
F000
FC00
3E00
0200
0700
1E00
7C00
7800
ENDCHAR
STARTCHAR Ydieresis
ENCODING 376
SWIDTH 493 0
DWIDTH 9 0
BBX 10 19 1 -1
BITMAP
19C0
39C0
3080
0000
0000
C180
E3C0
E780
EF00
7F00
7E00
7C00
3800
7800
7000
F000
E000
E000
4000
ENDCHAR
STARTCHAR Zcaron
ENCODING 381
SWIDTH 664 0
DWIDTH 12 0
BBX 13 20 0 -1
BITMAP
0210
0738
03F0
01E0
00C0
0000
1FF0
1FF0
1FF0
01F0
03C0
0780
1F00
3E00
FC00
F0C0
FFE0
FFC0
7F00
3000
ENDCHAR
STARTCHAR zcaron
ENCODING 382
SWIDTH 547 0
DWIDTH 10 0
BBX 11 19 0 -1
BITMAP
0420
0E60
0EE0
03C0
0100
0000
0000
1F80
3FC0
1FC0
03C0
0F00
1E00
7C00
F000
E780
FF80
FE00
3000
ENDCHAR
STARTCHAR circumflex
ENCODING 710
SWIDTH 754 0
DWIDTH 14 0
BBX 8 5 4 9
BITMAP
18
3C
7E
E7
42
ENDCHAR
STARTCHAR caron
ENCODING 711
SWIDTH 754 0
DWIDTH 14 0
BBX 8 5 4 9
BITMAP
42
E7
7E
3C
18
ENDCHAR
STARTCHAR breve
ENCODING 728
SWIDTH 754 0
DWIDTH 14 0
BBX 8 4 4 10
BITMAP
42
E7
7E
3C
ENDCHAR
STARTCHAR dotaccent
ENCODING 729
SWIDTH 754 0
DWIDTH 14 0
BBX 3 3 6 10
BITMAP
60
E0
40
ENDCHAR
STARTCHAR ring
ENCODING 730
SWIDTH 754 0
DWIDTH 14 0
BBX 6 6 5 9
BITMAP
10
38
78
F8
FC
70
ENDCHAR
STARTCHAR ogonek
ENCODING 731
SWIDTH 754 0
DWIDTH 14 0
BBX 7 6 5 -5
BITMAP
40
C0
C0
60
7E
1E
ENDCHAR
STARTCHAR tilde
ENCODING 732
SWIDTH 754 0
DWIDTH 14 0
BBX 8 3 4 10
BITMAP
7B
FF
DE
ENDCHAR
STARTCHAR hungarumlaut
ENCODING 733
SWIDTH 754 0
DWIDTH 14 0
BBX 10 5 3 8
BITMAP
1980
3BC0
7780
E700
C600
ENDCHAR
STARTCHAR endash
ENCODING 8211
SWIDTH 588 0
DWIDTH 11 0
BBX 10 3 0 3
BITMAP
FF80
FFC0
6000
ENDCHAR
STARTCHAR emdash
ENCODING 8212
SWIDTH 878 0
DWIDTH 16 0
BBX 15 3 0 3
BITMAP
FFFC
7FFE
2000
ENDCHAR
STARTCHAR quoteleft
ENCODING 8216
SWIDTH 203 0
DWIDTH 4 0
BBX 4 6 2 8
BITMAP
40
F0
E0
E0
C0
C0
ENDCHAR
STARTCHAR quoteright
ENCODING 8217
SWIDTH 199 0
DWIDTH 4 0
BBX 4 6 1 8
BITMAP
20
30
70
70
F0
60
ENDCHAR
STARTCHAR quotesinglbase
ENCODING 8218
SWIDTH 204 0
DWIDTH 4 0
BBX 4 6 -2 -3
BITMAP
20
70
70
70
E0
E0
ENDCHAR
STARTCHAR quotedblleft
ENCODING 8220
SWIDTH 410 0
DWIDTH 7 0
BBX 7 6 2 8
BITMAP
44
EE
EE
DC
DC
CC
ENDCHAR
STARTCHAR quotedblright
ENCODING 8221
SWIDTH 425 0
DWIDTH 8 0
BBX 9 6 1 8
BITMAP
2200
3380
7700
7700
FE00
6400
ENDCHAR
STARTCHAR quotedblbase
ENCODING 8222
SWIDTH 430 0
DWIDTH 8 0
BBX 8 6 -2 -3
BITMAP
22
73
77
77
EE
EC
ENDCHAR
STARTCHAR bullet
ENCODING 8226
SWIDTH 299 0
DWIDTH 5 0
BBX 4 4 1 3
BITMAP
E0
F0
E0
80
ENDCHAR
STARTCHAR ellipsis
ENCODING 8230
SWIDTH 768 0
DWIDTH 14 0
BBX 13 3 -1 0
BITMAP
6310
F7B8
6318
ENDCHAR
STARTCHAR perthousand
ENCODING 8240
SWIDTH 889 0
DWIDTH 16 0
BBX 15 13 1 0
BITMAP
1020
3060
78C0
D9C0
FB80
F700
0E00
1D04
339C
679E
EDF6
CFBE
C718
ENDCHAR
STARTCHAR guilsinglleft
ENCODING 8249
SWIDTH 322 0
DWIDTH 6 0
BBX 5 8 0 0
BITMAP
08
18
38
F0
C0
E0
70
30
ENDCHAR
STARTCHAR guilsinglright
ENCODING 8250
SWIDTH 341 0
DWIDTH 6 0
BBX 5 8 0 0
BITMAP
80
60
70
38
38
70
E0
80
ENDCHAR
STARTCHAR fraction
ENCODING 8260
SWIDTH 541 0
DWIDTH 10 0
BBX 10 13 0 0
BITMAP
0080
01C0
0380
0380
0700
0E00
1C00
3800
3000
7000
E000
E000
C000
ENDCHAR
STARTCHAR Euro
ENCODING 8364
SWIDTH 565 0
DWIDTH 10 0
BBX 10 11 0 0
BITMAP
0180
07C0
0F80
1F00
3C00
FF00
FF00
E000
3F80
3F80
0700
ENDCHAR
STARTCHAR Delta
ENCODING 8710
SWIDTH 403 0
DWIDTH 7 0
BBX 11 11 -1 0
BITMAP
0FC0
3FE0
1F00
0600
0600
0E00
0C00
0C00
1C00
FF00
7E00
ENDCHAR
STARTCHAR minus
ENCODING 8722
SWIDTH 548 0
DWIDTH 10 0
BBX 9 3 0 3
BITMAP
FF00
FF80
4000
ENDCHAR
STARTCHAR approxequal
ENCODING 8776
SWIDTH 323 0
DWIDTH 6 0
BBX 4 13 1 0
BITMAP
20
70
70
70
70
F0
E0
E0
E0
E0
E0
E0
E0
ENDCHAR
STARTCHAR fi
ENCODING 64257
SWIDTH 810 0
DWIDTH 15 0
BBX 14 11 0 0
BITMAP
03C8
3FF8
7E18
781C
3038
B738
FF38
FE30
E030
E038
4038
ENDCHAR
STARTCHAR fl
ENCODING 64258
SWIDTH 1012 0
DWIDTH 18 0
BBX 18 11 0 0
BITMAP
03D800
3FFC00
7E1C00
783800
303800
B73000
FF7000
FE7000
E07F80
E07FC0
407F80
ENDCHAR
STARTCHAR .notdef
ENCODING -1
SWIDTH 370 0
DWIDTH 7 0
BBX 1 1 0 0
BITMAP
00
ENDCHAR
ENDFONT
